# xmcd CD database file
#
# Track frame offsets:
#	150
#	14900
#	44745
#	75200
#	94870
#	113540
#	135936
#	164207
#
# Disc length: 2657 seconds
#
# Revision: 0
# Processed by: cddbd v1.5.2PL0 Copyright (c) Steve Scherf et al.
# Submitted via: CDex 1.70beta2
#
DISCID=620a5f08
DTITLE=Dizzy Gillespie - Jazz - Midern Mainstream - CD 093 Dizzy Gillespie
DYEAR=2009
DGENRE=Jazz
TTITLE0=Girl Of My Dreams (Clapp)
TTITLE1=It Don't Mean A Thing (Ellington-Mills)
TTITLE2=It's the Talk Of The Town (Livingston-Symes-Neiburg)
TTITLE3=Siboney Part 1 Lecuona)
TTITLE4=Siboney Part 2 Lecuona)
TTITLE5=Exaktly Like You (Fields-McHugh)
TTITLE6=I Let A Song Go Out Of My Heart (Ellington-Nemo-Mills-Redmond)
TTITLE7=Inpromptu (Gillespie)
EXTD=YEAR: 2009
EXTT0=
EXTT1=
EXTT2=
EXTT3=
EXTT4=
EXTT5=
EXTT6=
EXTT7=
PLAYORDER=
